# xmcd CD database file
#
# Track frame offsets:
#	182
#	15037
#	29572
#	38647
#	45380
#	60187
#	71330
#	88705
#	103762
#	115657
#	129210
#	140085
#	159690
#	176175
#	190140
#	202300
#	215865
#	236032
#	245160
#	255962
#	271935
#	285350
#	298822
#	308235
#	320405
#
# Disc length: 4423 seconds
#
# Revision: 2
# Processed by: cddbd v1.5.1PL0 Copyright (c) Steve Scherf et al.
# Submitted via: CDex 1.51
#
DISCID=6d114519
DTITLE=Fatty George - The Complete Fatty George
DYEAR=1993
DGENRE=Jazz
TTITLE0=Rockin`In Rhythm 
TTITLE1=Tin Roof Blues 
TTITLE2=Entree 
TTITLE3=Caldonia 
TTITLE4=Sansation Rag 
TTITLE5=Rockin`Chair 
TTITLE6=Margie 
TTITLE7=Brooding 
TTITLE8=A Wild One 
TTITLE9=Afro Cubana 
TTITLE10=Fatty`S Blues 
TTITLE11=Manhattan 
TTITLE12=Who`S Sorry Now 
TTITLE13=Black Coffe 
TTITLE14=North West Passage 
TTITLE15=A Smooth One 
TTITLE16=Someone To Watch Over Me 
TTITLE17=Auf Deiner Wäscheleine 
TTITLE18=South East 
TTITLE19=They Say That Fallin` In Love Is Wonderful 
TTITLE20=Dedication To Fatty 
TTITLE21=I Cover The Waterfront 
TTITLE22=If I Had You 
TTITLE23=Struttin` With Some Barbecue 
TTITLE24=When You`Re Smiling
EXTD=YEAR: 1993
EXTT0=
EXTT1=
EXTT2=
EXTT3=
EXTT4=
EXTT5=
EXTT6=
EXTT7=
EXTT8=
EXTT9=
EXTT10=
EXTT11=
EXTT12=
EXTT13=
EXTT14=
EXTT15=
EXTT16=
EXTT17=
EXTT18=
EXTT19=
EXTT20=
EXTT21=
EXTT22=
EXTT23=
EXTT24=
PLAYORDER=
